<?xml version="1.0" standalone="no"?>
<!DOCTYPE svg PUBLIC "-//W3C//DTD SVG 20010904//EN"
 "http://www.w3.org/TR/2001/REC-SVG-20010904/DTD/svg10.dtd">
<svg version="1.0" xmlns="http://www.w3.org/2000/svg"
 width="585.000000pt" height="585.000000pt" viewBox="0 0 585.000000 585.000000"
 preserveAspectRatio="xMidYMid meet">
<metadata>
Created by potrace 1.11, written by Peter Selinger 2001-2013
</metadata>
<g transform="translate(0.000000,585.000000) scale(0.100000,-0.100000)"
fill="#000000" stroke="none">
<path d="M1480 5444 c-366 -211 -672 -393 -681 -404 -9 -10 -188 -316 -398
-679 l-381 -660 0 -778 0 -778 390 -675 389 -674 673 -388 673 -388 781 0 782
0 673 388 673 388 388 672 388 673 0 783 0 782 -387 671 -388 671 -676 391
-675 391 -780 0 -779 -1 -665 -385z m747 -2001 c-3 -807 -6 -967 -20 -1073
-28 -211 -62 -338 -123 -463 -42 -85 -64 -117 -134 -191 -149 -158 -343 -227
-645 -228 -155 -1 -258 14 -380 53 -105 34 -251 111 -247 131 2 7 19 59 39
115 l35 101 62 -33 c85 -47 225 -92 331 -106 106 -14 274 -6 359 16 197 52
323 193 385 429 51 196 61 407 61 1384 l0 812 141 0 140 0 -4 -947z m2196 932
c107 -22 199 -77 298 -175 70 -71 93 -101 132 -180 62 -127 78 -192 84 -335 7
-178 -26 -301 -122 -445 -53 -80 -131 -154 -217 -207 -57 -35 -59 -38 -37 -46
124 -48 197 -94 279 -176 96 -97 148 -179 187 -296 24 -73 27 -95 27 -235 1
-136 -2 -163 -22 -225 -39 -117 -87 -192 -186 -291 -103 -102 -190 -154 -341
-201 l-90 -28 -752 -3 -753 -3 0 1431 0 1430 723 0 c588 0 735 -3 790 -15z"/>
<path d="M3200 3615 l0 -525 518 0 c552 0 566 1 669 51 26 13 78 53 114 89
108 107 159 231 159 390 0 216 -104 398 -275 481 l-70 34 -557 3 -558 3 0
-526z"/>
<path d="M3200 2320 l0 -540 568 0 c453 0 578 3 619 14 184 49 345 227 384
424 33 169 -29 371 -150 492 -66 66 -165 124 -239 139 -35 7 -246 11 -617 11
l-565 0 0 -540z"/>
</g>
</svg>
